<svg width="97" height="95" viewBox="0 0 97 95" fill="none" xmlns="http://www.w3.org/2000/svg">
<path d="M48.5 47.5C53.3236 47.5 57.9497 45.6233 61.3605 42.2828C64.7713 38.9423 66.6875 34.4117 66.6875 29.6875C66.6875 24.9633 64.7713 20.4327 61.3605 17.0922C57.9497 13.7517 53.3236 11.875 48.5 11.875C43.6764 11.875 39.0503 13.7517 35.6395 17.0922C32.2287 20.4327 30.3125 24.9633 30.3125 29.6875C30.3125 34.4117 32.2287 38.9423 35.6395 42.2828C39.0503 45.6233 43.6764 47.5 48.5 47.5V47.5ZM60.625 29.6875C60.625 32.8369 59.3475 35.8574 57.0737 38.0844C54.7998 40.3114 51.7158 41.5625 48.5 41.5625C45.2842 41.5625 42.2002 40.3114 39.9263 38.0844C37.6525 35.8574 36.375 32.8369 36.375 29.6875C36.375 26.5381 37.6525 23.5176 39.9263 21.2906C42.2002 19.0636 45.2842 17.8125 48.5 17.8125C51.7158 17.8125 54.7998 19.0636 57.0737 21.2906C59.3475 23.5176 60.625 26.5381 60.625 29.6875V29.6875ZM84.875 77.1875C84.875 83.125 78.8125 83.125 78.8125 83.125H18.1875C18.1875 83.125 12.125 83.125 12.125 77.1875C12.125 71.25 18.1875 53.4375 48.5 53.4375C78.8125 53.4375 84.875 71.25 84.875 77.1875ZM78.8125 77.1638C78.8064 75.7031 77.8789 71.3094 73.7685 67.2837C69.8158 63.4125 62.3771 59.375 48.5 59.375C34.6169 59.375 27.1843 63.4125 23.2315 67.2837C19.1211 71.3094 18.1996 75.7031 18.1875 77.1638H78.8125Z" fill="url(#paint0_linear_9_222)"/>
<defs>
<linearGradient id="paint0_linear_9_222" x1="48.5" y1="11.875" x2="48.5" y2="83.125" gradientUnits="userSpaceOnUse">
<stop stop-color="#00FF29"/>
<stop offset="0.5" stop-color="#4B9D87"/>
<stop offset="0.9999" stop-color="#A526F8"/>
<stop offset="1" stop-color="#AA1FFF"/>
<stop offset="1" stop-color="#AA1FFF"/>
</linearGradient>
</defs>
</svg>
