<svg width="73" height="72" viewBox="0 0 73 72" fill="none" xmlns="http://www.w3.org/2000/svg">
<path d="M36.375 35.625C41.1986 35.625 45.8247 33.7483 49.2355 30.4078C52.6463 27.0673 54.5625 22.5367 54.5625 17.8125C54.5625 13.0883 52.6463 8.55765 49.2355 5.21716C45.8247 1.87667 41.1986 0 36.375 0C31.5514 0 26.9253 1.87667 23.5145 5.21716C20.1037 8.55765 18.1875 13.0883 18.1875 17.8125C18.1875 22.5367 20.1037 27.0673 23.5145 30.4078C26.9253 33.7483 31.5514 35.625 36.375 35.625ZM48.5 17.8125C48.5 20.9619 47.2225 23.9824 44.9487 26.2094C42.6748 28.4364 39.5907 29.6875 36.375 29.6875C33.1593 29.6875 30.0752 28.4364 27.8013 26.2094C25.5275 23.9824 24.25 20.9619 24.25 17.8125C24.25 14.6631 25.5275 11.6426 27.8013 9.41561C30.0752 7.18861 33.1593 5.9375 36.375 5.9375C39.5907 5.9375 42.6748 7.18861 44.9487 9.41561C47.2225 11.6426 48.5 14.6631 48.5 17.8125ZM72.75 65.3125C72.75 71.25 66.6875 71.25 66.6875 71.25H6.0625C6.0625 71.25 0 71.25 0 65.3125C0 59.375 6.0625 41.5625 36.375 41.5625C66.6875 41.5625 72.75 59.375 72.75 65.3125ZM66.6875 65.2887C66.6814 63.8281 65.7539 59.4344 61.6435 55.4087C57.6908 51.5375 50.2521 47.5 36.375 47.5C22.4919 47.5 15.0592 51.5375 11.1065 55.4087C6.99612 59.4344 6.07463 63.8281 6.0625 65.2887H66.6875Z" fill="url(#paint0_linear_9_223)"/>
<defs>
<linearGradient id="paint0_linear_9_223" x1="73" y1="53.5" x2="36" y2="13" gradientUnits="userSpaceOnUse">
<stop stop-color="#00FF29"/>
<stop offset="0.9998" stop-color="#A229F5"/>
<stop offset="0.9999" stop-color="#A526F8"/>
<stop offset="1" stop-color="#AA1FFF"/>
<stop offset="1" stop-color="#AA1FFF"/>
<stop offset="1" stop-color="#AA1FFF"/>
</linearGradient>
</defs>
</svg>
