<svg width="115" height="115" viewBox="0 0 115 115" fill="none" xmlns="http://www.w3.org/2000/svg">
<g clip-path="url(#clip0_9_224)">
<path d="M87.2275 2.34313C88.8164 1.94569 90.4749 1.91546 92.0772 2.25475C93.6795 2.59403 95.1834 3.29392 96.4748 4.30126C97.7662 5.3086 98.8111 6.59693 99.5302 8.06843C100.249 9.53994 100.624 11.1559 100.625 12.7938V21.5625H104.219C107.078 21.5625 109.82 22.6984 111.842 24.7203C113.864 26.7421 115 29.4844 115 32.3438V97.0313C115 99.8906 113.864 102.633 111.842 104.655C109.82 106.677 107.078 107.813 104.219 107.813H10.7813C7.92189 107.813 5.17963 106.677 3.15776 104.655C1.13588 102.633 7.05033e-07 99.8906 7.05033e-07 97.0313V32.3438C-0.00100237 29.5683 1.06837 26.8994 2.98553 24.8926C4.90268 22.8857 7.51993 21.6955 10.2925 21.5697L87.2275 2.34313ZM39.9769 21.5625H93.4375V12.7938C93.4363 12.2485 93.311 11.7106 93.0711 11.221C92.8312 10.7313 92.483 10.3026 92.053 9.96741C91.6229 9.63221 91.1222 9.39928 90.5887 9.28624C90.0553 9.17321 89.5031 9.18305 88.9741 9.315L39.9769 21.5625ZM10.7813 28.75C9.82813 28.75 8.91404 29.1286 8.24009 29.8026C7.56613 30.4765 7.1875 31.3906 7.1875 32.3438V97.0313C7.1875 97.9844 7.56613 98.8985 8.24009 99.5724C8.91404 100.246 9.82813 100.625 10.7813 100.625H104.219C105.172 100.625 106.086 100.246 106.76 99.5724C107.434 98.8985 107.812 97.9844 107.812 97.0313V32.3438C107.812 31.3906 107.434 30.4765 106.76 29.8026C106.086 29.1286 105.172 28.75 104.219 28.75H10.7813Z" fill="url(#paint0_linear_9_224)"/>
</g>
<defs>
<linearGradient id="paint0_linear_9_224" x1="57.5" y1="2.02088" x2="115" y2="55" gradientUnits="userSpaceOnUse">
<stop stop-color="#AA1FFF"/>
<stop offset="1" stop-color="#1EFF6A"/>
</linearGradient>
<clipPath id="clip0_9_224">
<rect width="115" height="115" fill="white"/>
</clipPath>
</defs>
</svg>
