<svg viewBox="0 0 78 78" xmlns="http://www.w3.org/2000/svg">
  <path d="M39,77.7A38.7,38.7,0,1,1,78,39" fill="#363332"/>
  <path d="M78,39A38.85,38.85,0,0,1,39,77.7" fill="#363332"/>
  <path d="M69.91,37A33.27,33.27,0,1,1,36.65,4,33.14,33.14,0,0,1,69.91,37Z" fill="#e9b10e"/>
  <path d="M62.7,34.83A29.66,29.66,0,1,1,33,5.39,29.55,29.55,0,0,1,62.7,34.83Z" fill="#fff"/>
  <path d="M9.1,23.17l9-7.42a5.88,5.88,0,0,1,3.72-1.33H33.2a2,2,0,0,1,1.88,1.42L39.92,33,28,42.79,16.78,40.16a3.92,3.92,0,0,1-2.68-2.22L8.56,25.48A2,2,0,0,1,9.1,23.17Z" fill="#e9b10e"/>
  <path d="M10.48,25.12l11.24.48a2.91,2.91,0,0,1,2.64,1.95l4.36,12.39a1,1,0,0,1-1.14,1.28l-10-2.31a3.88,3.88,0,0,1-2.69-2.21L10,25.8a.49.49,0,0,1,.24-.64A.43.43,0,0,1,10.48,25.12Zm.13-1.69,7.6-6A7.79,7.79,0,0,1,23,15.72l9.33-.07a.48.48,0,0,1,.49.48.49.49,0,0,1-.15.36l-7.46,7.2a3.91,3.91,0,0,1-2.88,1.1L10.89,24.3a.49.49,0,0,1-.28-.87ZM26,24.29l7.45-7.19a.49.49,0,0,1,.69,0,.53.53,0,0,1,.11.21L37.49,28.6a3.9,3.9,0,0,1-.73,3.53l-6.32,7.8a.49.49,0,0,1-.69.07.48.48,0,0,1-.15-.22L25.3,27.35A2.93,2.93,0,0,1,26,24.29Z" fill="#363332"/>
  <path d="M22.28,20.76c.92-.45,1.47-1.21,1.23-1.69s-1.17-.52-2.08-.07S20,20.2,20.19,20.69,21.36,21.2,22.28,20.76ZM18.62,37.49c.45-.44.27-1.36-.41-2.06s-1.59-.91-2-.48-.27,1.36.41,2.06S18.17,37.92,18.62,37.49Zm3.89-6.91c.45-.43.27-1.35-.4-2s-1.59-.92-2-.48-.27,1.36.4,2.06S22.06,31,22.51,30.58ZM31,36.87a1.58,1.58,0,0,0,1-2c-.17-1-.88-1.63-1.58-1.51a1.58,1.58,0,0,0-1,2C29.6,36.32,30.3,37,31,36.87Zm4.73-5.37a1.58,1.58,0,0,0,1-2c-.17-1-.88-1.63-1.58-1.51a1.58,1.58,0,0,0-1,2C34.33,31,35,31.62,35.73,31.5Zm-3.61-1.17a1.58,1.58,0,0,0,1-2c-.17-.95-.87-1.63-1.57-1.51a1.58,1.58,0,0,0-1,2C30.71,29.78,31.42,30.46,32.12,30.33Zm-4-1.49a1.58,1.58,0,0,0,1-1.95c-.17-1-.88-1.64-1.58-1.51a1.57,1.57,0,0,0-1,1.95C26.76,28.29,27.46,29,28.16,28.84Zm5.25-5.28a1.58,1.58,0,0,0,1-2c-.17-1-.87-1.63-1.58-1.51a1.58,1.58,0,0,0-1,2C32,23,32.7,23.69,33.41,23.56Z" fill="#fff"/>
  <path d="M26.09,26.93,39.9,25.22a5.87,5.87,0,0,1,3.83.84l11.69,7.31a2,2,0,0,1,.84,2.23l-5,16.1a4,4,0,0,1-2.43,2.53L35.29,59a2,2,0,0,1-2-.48l-9.84-10a5.86,5.86,0,0,1-1.59-5.12L24.4,28.54A2,2,0,0,1,26.09,26.93Z" fill="#e9b10e"/>
  <path d="M41.63,38.65,53.82,36.2a.49.49,0,0,1,.58.39.65.65,0,0,1,0,.24L50.24,50.31a3.89,3.89,0,0,1-2.42,2.53L36.3,57a.49.49,0,0,1-.63-.3.41.41,0,0,1,0-.27l3.7-15.55A2.94,2.94,0,0,1,41.63,38.65ZM28,27.91l12.35-1.25a3.87,3.87,0,0,1,2.42.54L53,33.41a1,1,0,0,1,.33,1.34,1,1,0,0,1-.65.45L40.94,37.53a3.9,3.9,0,0,1-3-.62L27.52,29.69A1,1,0,0,1,28,27.91Zm-1.9,2,10.76,7.57A2.91,2.91,0,0,1,38,40.55L34.17,56.27a.5.5,0,0,1-.59.36.51.51,0,0,1-.23-.12L24.8,48.24A5.84,5.84,0,0,1,23.1,43l2.22-12.81a.49.49,0,0,1,.56-.4A.7.7,0,0,1,26.08,29.89Z" fill="#363332"/>
  <path d="M39.78,35.5c1.18.17,2.2-.16,2.28-.74s-.81-1.18-2-1.34-2.2.16-2.28.74S38.6,35.34,39.78,35.5Zm.51-2.89c1.18.16,2.2-.17,2.28-.75s-.81-1.17-2-1.34-2.2.17-2.28.74S39.11,32.44,40.29,32.61Zm8.33,2c1.18.16,2.2-.17,2.28-.75s-.81-1.17-2-1.34-2.2.17-2.28.74S47.44,34.4,48.62,34.57ZM32.19,30.65c1.18.17,2.2-.17,2.29-.74s-.81-1.18-2-1.34-2.2.16-2.28.74S31,30.48,32.19,30.65Zm8.59-.71c1.18.17,2.2-.17,2.28-.74s-.81-1.18-2-1.35-2.2.17-2.28.75S39.6,29.77,40.78,29.94ZM27.43,37c.73,0,1.29-.93,1.25-2S28,33,27.3,33.05,26,34,26,35.07,26.7,37,27.43,37Zm6.75,5.09c.73,0,1.29-.93,1.25-2s-.66-2-1.39-1.93-1.29.93-1.25,2S33.45,42.11,34.18,42.09ZM26.63,42c.73,0,1.29-.93,1.25-2s-.66-2-1.39-1.93-1.29.93-1.25,2S25.9,42.07,26.63,42Zm6.6,5.48c.73,0,1.29-.93,1.25-2s-.66-2-1.39-1.93-1.29.94-1.25,2S32.5,47.55,33.23,47.52Zm-7.43-.73c.73,0,1.29-.93,1.25-2s-.66-2-1.38-1.93-1.29.93-1.26,2S25.07,46.81,25.8,46.79Zm6.42,6c.72,0,1.28-.93,1.25-2s-.66-1.95-1.39-1.93-1.29.93-1.25,2S31.49,52.78,32.22,52.75Zm8.7-8.64c.68.43,1.73,0,2.33-1a1.85,1.85,0,0,0-.13-2.53c-.69-.43-1.73,0-2.34,1S40.23,43.68,40.92,44.11ZM38.6,53.79c.69.43,1.73,0,2.34-1a1.84,1.84,0,0,0-.14-2.53c-.68-.43-1.73,0-2.34,1S37.92,53.36,38.6,53.79ZM49.29,42c.69.43,1.73,0,2.34-1s.55-2.11-.14-2.54-1.73,0-2.34,1S48.61,41.59,49.29,42Zm-2.63,9.44c.68.43,1.73,0,2.34-1a1.86,1.86,0,0,0-.14-2.54c-.68-.43-1.73,0-2.34,1A1.85,1.85,0,0,0,46.66,51.45Z" fill="#fff"/>
</svg>
